<mxfile host="Electron" modified="2023-04-15T14:47:08.056Z" agent="Mozilla/5.0 (Windows NT 10.0; Win64; x64) AppleWebKit/537.36 (KHTML, like Gecko) draw.io/21.1.2 Chrome/106.0.5249.199 Electron/21.4.3 Safari/537.36" etag="MtHbyBqBLB70_ZFe8jtb" version="21.1.2" type="device">
  <diagram name="Page-1" id="4r3iTEdkTTWyj0o4ejH8">
    <mxGraphModel dx="1728" dy="1012" grid="1" gridSize="10" guides="1" tooltips="1" connect="1" arrows="1" fold="1" page="1" pageScale="1" pageWidth="827" pageHeight="1169" math="0" shadow="0">
      <root>
        <mxCell id="0" />
        <mxCell id="1" parent="0" />
        <mxCell id="etUHL9N9CuV_xCmNPU38-2" value="" style="endArrow=classic;html=1;rounded=0;exitX=0.5;exitY=1;exitDx=0;exitDy=0;edgeStyle=orthogonalEdgeStyle;fillColor=#dae8fc;strokeColor=#6c8ebf;entryX=0;entryY=0.5;entryDx=0;entryDy=0;" edge="1" parent="1" source="0MJOGi0nB4p2Ofhdkx8x-5" target="0MJOGi0nB4p2Ofhdkx8x-36">
          <mxGeometry width="50" height="50" relative="1" as="geometry">
            <mxPoint x="470" y="440" as="sourcePoint" />
            <mxPoint x="780" y="400" as="targetPoint" />
            <Array as="points">
              <mxPoint x="280" y="410" />
            </Array>
          </mxGeometry>
        </mxCell>
        <mxCell id="etUHL9N9CuV_xCmNPU38-6" value="pub/sub" style="edgeLabel;html=1;align=center;verticalAlign=middle;resizable=0;points=[];" vertex="1" connectable="0" parent="etUHL9N9CuV_xCmNPU38-2">
          <mxGeometry x="0.8" y="1" relative="1" as="geometry">
            <mxPoint x="13" as="offset" />
          </mxGeometry>
        </mxCell>
        <object placeholders="1" c4Name="SmartHome.Service" c4Type="ContainerScopeBoundary" c4Application="Container" label="&lt;font style=&quot;font-size: 16px&quot;&gt;&lt;b&gt;&lt;div style=&quot;text-align: left&quot;&gt;%c4Name%&lt;/div&gt;&lt;/b&gt;&lt;/font&gt;&lt;div style=&quot;text-align: left&quot;&gt;[%c4Application%]&lt;/div&gt;" id="0MJOGi0nB4p2Ofhdkx8x-1">
          <mxCell style="rounded=1;fontSize=11;whiteSpace=wrap;html=1;dashed=1;arcSize=20;fillColor=none;strokeColor=#666666;fontColor=#333333;labelBackgroundColor=none;align=left;verticalAlign=bottom;labelBorderColor=none;spacingTop=0;spacing=10;dashPattern=8 4;metaEdit=1;rotatable=0;perimeter=rectanglePerimeter;noLabel=0;labelPadding=0;allowArrows=0;connectable=0;expand=0;recursiveResize=0;editable=1;pointerEvents=0;absoluteArcSize=1;points=[[0.25,0,0],[0.5,0,0],[0.75,0,0],[1,0.25,0],[1,0.5,0],[1,0.75,0],[0.75,1,0],[0.5,1,0],[0.25,1,0],[0,0.75,0],[0,0.5,0],[0,0.25,0]];" parent="1" vertex="1">
            <mxGeometry x="160" y="130" width="880" height="500" as="geometry" />
          </mxCell>
        </object>
        <mxCell id="0MJOGi0nB4p2Ofhdkx8x-2" value="&lt;b&gt;Switchables Data&lt;/b&gt;&lt;br&gt;SQLite" style="shape=cylinder3;whiteSpace=wrap;html=1;boundedLbl=1;backgroundOutline=1;size=15;fillColor=#f5f5f5;fontColor=#333333;strokeColor=#666666;" parent="1" vertex="1">
          <mxGeometry x="210" y="455" width="130" height="70" as="geometry" />
        </mxCell>
        <object placeholders="1" c4Name="SmartHome System" c4Type="SystemScopeBoundary" c4Application="Software System" label="&lt;font style=&quot;font-size: 16px&quot;&gt;&lt;b&gt;&lt;div style=&quot;text-align: left&quot;&gt;%c4Name%&lt;/div&gt;&lt;/b&gt;&lt;/font&gt;&lt;div style=&quot;text-align: left&quot;&gt;[%c4Application%]&lt;/div&gt;" id="0MJOGi0nB4p2Ofhdkx8x-3">
          <mxCell style="rounded=1;fontSize=11;whiteSpace=wrap;html=1;dashed=1;arcSize=20;fillColor=none;strokeColor=#666666;fontColor=#333333;labelBackgroundColor=none;align=left;verticalAlign=bottom;labelBorderColor=none;spacingTop=0;spacing=10;dashPattern=8 4;metaEdit=1;rotatable=0;perimeter=rectanglePerimeter;noLabel=0;labelPadding=0;allowArrows=0;connectable=0;expand=0;recursiveResize=0;editable=1;pointerEvents=0;absoluteArcSize=1;points=[[0.25,0,0],[0.5,0,0],[0.75,0,0],[1,0.25,0],[1,0.5,0],[1,0.75,0],[0.75,1,0],[0.5,1,0],[0.25,1,0],[0,0.75,0],[0,0.5,0],[0,0.25,0]];" parent="1" vertex="1">
            <mxGeometry x="150" y="10" width="900" height="670" as="geometry" />
          </mxCell>
        </object>
        <mxCell id="0MJOGi0nB4p2Ofhdkx8x-4" value="&lt;b&gt;API&lt;/b&gt;&lt;br&gt;(.NET Core API)" style="rounded=0;whiteSpace=wrap;html=1;fillColor=#dae8fc;strokeColor=#6c8ebf;" parent="1" vertex="1">
          <mxGeometry x="430" y="170" width="120" height="60" as="geometry" />
        </mxCell>
        <mxCell id="0MJOGi0nB4p2Ofhdkx8x-14" value="" style="edgeStyle=orthogonalEdgeStyle;rounded=0;orthogonalLoop=1;jettySize=auto;html=1;" parent="1" source="0MJOGi0nB4p2Ofhdkx8x-5" target="0MJOGi0nB4p2Ofhdkx8x-2" edge="1">
          <mxGeometry relative="1" as="geometry">
            <Array as="points">
              <mxPoint x="310" y="380" />
              <mxPoint x="310" y="380" />
            </Array>
          </mxGeometry>
        </mxCell>
        <mxCell id="0MJOGi0nB4p2Ofhdkx8x-18" value="stores/retrieves" style="edgeLabel;html=1;align=center;verticalAlign=middle;resizable=0;points=[];" parent="0MJOGi0nB4p2Ofhdkx8x-14" vertex="1" connectable="0">
          <mxGeometry x="-0.25" y="-1" relative="1" as="geometry">
            <mxPoint x="1" y="30" as="offset" />
          </mxGeometry>
        </mxCell>
        <mxCell id="0MJOGi0nB4p2Ofhdkx8x-5" value="&lt;b&gt;Switchables&lt;/b&gt;&lt;br&gt;(.NET)" style="rounded=0;whiteSpace=wrap;html=1;fillColor=#dae8fc;strokeColor=#6c8ebf;" parent="1" vertex="1">
          <mxGeometry x="220" y="310" width="120" height="60" as="geometry" />
        </mxCell>
        <mxCell id="0MJOGi0nB4p2Ofhdkx8x-15" value="" style="edgeStyle=orthogonalEdgeStyle;rounded=0;orthogonalLoop=1;jettySize=auto;html=1;" parent="1" source="0MJOGi0nB4p2Ofhdkx8x-6" target="0MJOGi0nB4p2Ofhdkx8x-11" edge="1">
          <mxGeometry relative="1" as="geometry">
            <Array as="points">
              <mxPoint x="450" y="380" />
              <mxPoint x="450" y="380" />
            </Array>
          </mxGeometry>
        </mxCell>
        <mxCell id="0MJOGi0nB4p2Ofhdkx8x-19" value="stores/retrieves" style="edgeLabel;html=1;align=center;verticalAlign=middle;resizable=0;points=[];" parent="0MJOGi0nB4p2Ofhdkx8x-15" vertex="1" connectable="0">
          <mxGeometry x="-0.2595" relative="1" as="geometry">
            <mxPoint y="30" as="offset" />
          </mxGeometry>
        </mxCell>
        <mxCell id="0MJOGi0nB4p2Ofhdkx8x-6" value="&lt;b&gt;Climate Control&lt;/b&gt;&lt;br&gt;(.NET)" style="rounded=0;whiteSpace=wrap;html=1;fillColor=#dae8fc;strokeColor=#6c8ebf;" parent="1" vertex="1">
          <mxGeometry x="360" y="310" width="120" height="60" as="geometry" />
        </mxCell>
        <mxCell id="0MJOGi0nB4p2Ofhdkx8x-16" value="" style="edgeStyle=orthogonalEdgeStyle;rounded=0;orthogonalLoop=1;jettySize=auto;html=1;" parent="1" source="0MJOGi0nB4p2Ofhdkx8x-9" target="0MJOGi0nB4p2Ofhdkx8x-12" edge="1">
          <mxGeometry relative="1" as="geometry">
            <Array as="points">
              <mxPoint x="590" y="390" />
              <mxPoint x="590" y="390" />
            </Array>
          </mxGeometry>
        </mxCell>
        <mxCell id="0MJOGi0nB4p2Ofhdkx8x-20" value="stores/retrieves" style="edgeLabel;html=1;align=center;verticalAlign=middle;resizable=0;points=[];" parent="0MJOGi0nB4p2Ofhdkx8x-16" vertex="1" connectable="0">
          <mxGeometry x="0.3804" y="-1" relative="1" as="geometry">
            <mxPoint x="1" y="1" as="offset" />
          </mxGeometry>
        </mxCell>
        <mxCell id="0MJOGi0nB4p2Ofhdkx8x-9" value="&lt;b&gt;Cameras&lt;/b&gt;&lt;br&gt;(.NET)" style="rounded=0;whiteSpace=wrap;html=1;fillColor=#dae8fc;strokeColor=#6c8ebf;" parent="1" vertex="1">
          <mxGeometry x="500" y="310" width="120" height="60" as="geometry" />
        </mxCell>
        <mxCell id="0MJOGi0nB4p2Ofhdkx8x-17" value="" style="edgeStyle=orthogonalEdgeStyle;rounded=0;orthogonalLoop=1;jettySize=auto;html=1;" parent="1" source="0MJOGi0nB4p2Ofhdkx8x-10" target="0MJOGi0nB4p2Ofhdkx8x-13" edge="1">
          <mxGeometry relative="1" as="geometry">
            <Array as="points">
              <mxPoint x="695" y="380" />
              <mxPoint x="695" y="380" />
            </Array>
          </mxGeometry>
        </mxCell>
        <mxCell id="0MJOGi0nB4p2Ofhdkx8x-21" value="stores/retrieves" style="edgeLabel;html=1;align=center;verticalAlign=middle;resizable=0;points=[];" parent="0MJOGi0nB4p2Ofhdkx8x-17" vertex="1" connectable="0">
          <mxGeometry x="0.358" relative="1" as="geometry">
            <mxPoint as="offset" />
          </mxGeometry>
        </mxCell>
        <mxCell id="0MJOGi0nB4p2Ofhdkx8x-10" value="&lt;b&gt;Orchestration&lt;/b&gt;&lt;br&gt;(.NET)" style="rounded=0;whiteSpace=wrap;html=1;fillColor=#dae8fc;strokeColor=#6c8ebf;" parent="1" vertex="1">
          <mxGeometry x="640" y="310" width="120" height="60" as="geometry" />
        </mxCell>
        <mxCell id="0MJOGi0nB4p2Ofhdkx8x-11" value="&lt;b&gt;Climate Control Data&lt;/b&gt;&lt;br&gt;SQL Server" style="shape=cylinder3;whiteSpace=wrap;html=1;boundedLbl=1;backgroundOutline=1;size=15;fillColor=#f5f5f5;fontColor=#333333;strokeColor=#666666;" parent="1" vertex="1">
          <mxGeometry x="350" y="455" width="130" height="70" as="geometry" />
        </mxCell>
        <mxCell id="0MJOGi0nB4p2Ofhdkx8x-12" value="&lt;b&gt;Cameras Data&lt;/b&gt;&lt;br&gt;SQLite + file store" style="shape=cylinder3;whiteSpace=wrap;html=1;boundedLbl=1;backgroundOutline=1;size=15;fillColor=#f5f5f5;fontColor=#333333;strokeColor=#666666;" parent="1" vertex="1">
          <mxGeometry x="490" y="455" width="130" height="70" as="geometry" />
        </mxCell>
        <mxCell id="0MJOGi0nB4p2Ofhdkx8x-13" value="&lt;b&gt;Orchestration Data&lt;/b&gt;&lt;br&gt;SQL Server" style="shape=cylinder3;whiteSpace=wrap;html=1;boundedLbl=1;backgroundOutline=1;size=15;fillColor=#f5f5f5;fontColor=#333333;strokeColor=#666666;" parent="1" vertex="1">
          <mxGeometry x="640" y="455" width="130" height="70" as="geometry" />
        </mxCell>
        <mxCell id="0MJOGi0nB4p2Ofhdkx8x-27" value="" style="endArrow=classic;html=1;rounded=0;exitX=0.5;exitY=1;exitDx=0;exitDy=0;entryX=0.5;entryY=0;entryDx=0;entryDy=0;" parent="1" source="0MJOGi0nB4p2Ofhdkx8x-4" target="0MJOGi0nB4p2Ofhdkx8x-5" edge="1">
          <mxGeometry width="50" height="50" relative="1" as="geometry">
            <mxPoint x="470" y="390" as="sourcePoint" />
            <mxPoint x="520" y="340" as="targetPoint" />
          </mxGeometry>
        </mxCell>
        <mxCell id="0MJOGi0nB4p2Ofhdkx8x-34" value="Uses" style="edgeLabel;html=1;align=center;verticalAlign=middle;resizable=0;points=[];" parent="0MJOGi0nB4p2Ofhdkx8x-27" vertex="1" connectable="0">
          <mxGeometry x="0.1851" y="1" relative="1" as="geometry">
            <mxPoint x="24" y="-6" as="offset" />
          </mxGeometry>
        </mxCell>
        <mxCell id="0MJOGi0nB4p2Ofhdkx8x-28" value="" style="endArrow=classic;html=1;rounded=0;entryX=0.5;entryY=0;entryDx=0;entryDy=0;exitX=0.5;exitY=1;exitDx=0;exitDy=0;" parent="1" target="0MJOGi0nB4p2Ofhdkx8x-6" edge="1" source="0MJOGi0nB4p2Ofhdkx8x-4">
          <mxGeometry width="50" height="50" relative="1" as="geometry">
            <mxPoint x="490" y="220" as="sourcePoint" />
            <mxPoint x="520" y="340" as="targetPoint" />
          </mxGeometry>
        </mxCell>
        <mxCell id="0MJOGi0nB4p2Ofhdkx8x-33" value="Uses" style="edgeLabel;html=1;align=center;verticalAlign=middle;resizable=0;points=[];" parent="0MJOGi0nB4p2Ofhdkx8x-28" vertex="1" connectable="0">
          <mxGeometry x="0.1563" y="1" relative="1" as="geometry">
            <mxPoint x="10" y="-5" as="offset" />
          </mxGeometry>
        </mxCell>
        <mxCell id="0MJOGi0nB4p2Ofhdkx8x-29" value="" style="endArrow=classic;html=1;rounded=0;exitX=0.5;exitY=1;exitDx=0;exitDy=0;entryX=0.5;entryY=0;entryDx=0;entryDy=0;" parent="1" source="0MJOGi0nB4p2Ofhdkx8x-4" target="0MJOGi0nB4p2Ofhdkx8x-9" edge="1">
          <mxGeometry width="50" height="50" relative="1" as="geometry">
            <mxPoint x="470" y="390" as="sourcePoint" />
            <mxPoint x="520" y="340" as="targetPoint" />
          </mxGeometry>
        </mxCell>
        <mxCell id="0MJOGi0nB4p2Ofhdkx8x-32" value="Uses" style="edgeLabel;html=1;align=center;verticalAlign=middle;resizable=0;points=[];" parent="0MJOGi0nB4p2Ofhdkx8x-29" vertex="1" connectable="0">
          <mxGeometry x="0.2089" y="1" relative="1" as="geometry">
            <mxPoint x="-13" y="-6" as="offset" />
          </mxGeometry>
        </mxCell>
        <mxCell id="0MJOGi0nB4p2Ofhdkx8x-30" value="" style="endArrow=classic;html=1;rounded=0;entryX=0.5;entryY=0;entryDx=0;entryDy=0;exitX=0.5;exitY=1;exitDx=0;exitDy=0;" parent="1" target="0MJOGi0nB4p2Ofhdkx8x-10" edge="1" source="0MJOGi0nB4p2Ofhdkx8x-4">
          <mxGeometry width="50" height="50" relative="1" as="geometry">
            <mxPoint x="490" y="220" as="sourcePoint" />
            <mxPoint x="520" y="340" as="targetPoint" />
          </mxGeometry>
        </mxCell>
        <mxCell id="0MJOGi0nB4p2Ofhdkx8x-31" value="Uses" style="edgeLabel;html=1;align=center;verticalAlign=middle;resizable=0;points=[];" parent="0MJOGi0nB4p2Ofhdkx8x-30" vertex="1" connectable="0">
          <mxGeometry x="0.2031" y="-1" relative="1" as="geometry">
            <mxPoint x="-16" y="-7" as="offset" />
          </mxGeometry>
        </mxCell>
        <mxCell id="0MJOGi0nB4p2Ofhdkx8x-36" value="&lt;b&gt;Event Bus&lt;br&gt;&lt;/b&gt;(Rabbit/Kafka TBD)&lt;br&gt;&lt;br&gt;Event bus for integration events (module to module) and IoT devices" style="rounded=0;whiteSpace=wrap;html=1;fillColor=#dae8fc;strokeColor=#6c8ebf;" parent="1" vertex="1">
          <mxGeometry x="810" y="360" width="150" height="100" as="geometry" />
        </mxCell>
        <mxCell id="0MJOGi0nB4p2Ofhdkx8x-39" value="This could be two buses, or two schemas on a bus, but it might be beneficial to the model to consider IoT device events as integration events and handle them in a similar way" style="rounded=0;whiteSpace=wrap;html=1;fillColor=#fff2cc;strokeColor=#d6b656;" parent="1" vertex="1">
          <mxGeometry x="830" y="260" width="190" height="100" as="geometry" />
        </mxCell>
        <mxCell id="0MJOGi0nB4p2Ofhdkx8x-40" value="&lt;b&gt;Light Switch&lt;/b&gt;" style="rounded=0;whiteSpace=wrap;html=1;fillColor=#ffe6cc;strokeColor=#d79b00;" parent="1" vertex="1">
          <mxGeometry x="910" y="480" width="120" height="60" as="geometry" />
        </mxCell>
        <mxCell id="0MJOGi0nB4p2Ofhdkx8x-41" value="&lt;b&gt;Thermostat&lt;/b&gt;" style="rounded=0;whiteSpace=wrap;html=1;fillColor=#ffe6cc;strokeColor=#d79b00;" parent="1" vertex="1">
          <mxGeometry x="910" y="560" width="120" height="60" as="geometry" />
        </mxCell>
        <mxCell id="0MJOGi0nB4p2Ofhdkx8x-42" value="&lt;b&gt;Camera&lt;/b&gt;" style="rounded=0;whiteSpace=wrap;html=1;fillColor=#ffe6cc;strokeColor=#d79b00;" parent="1" vertex="1">
          <mxGeometry x="730" y="560" width="120" height="60" as="geometry" />
        </mxCell>
        <mxCell id="0MJOGi0nB4p2Ofhdkx8x-43" value="" style="endArrow=none;html=1;rounded=0;exitX=0.47;exitY=1.001;exitDx=0;exitDy=0;edgeStyle=orthogonalEdgeStyle;entryX=0;entryY=0.5;entryDx=0;entryDy=0;exitPerimeter=0;endFill=0;startArrow=classic;startFill=1;" parent="1" source="0MJOGi0nB4p2Ofhdkx8x-36" target="0MJOGi0nB4p2Ofhdkx8x-41" edge="1">
          <mxGeometry width="50" height="50" relative="1" as="geometry">
            <mxPoint x="650" y="560" as="sourcePoint" />
            <mxPoint x="880" y="560" as="targetPoint" />
            <Array as="points">
              <mxPoint x="881" y="590" />
            </Array>
          </mxGeometry>
        </mxCell>
        <mxCell id="0MJOGi0nB4p2Ofhdkx8x-46" value="pub/sub" style="edgeLabel;html=1;align=center;verticalAlign=middle;resizable=0;points=[];" parent="0MJOGi0nB4p2Ofhdkx8x-43" vertex="1" connectable="0">
          <mxGeometry x="-0.7348" y="-1" relative="1" as="geometry">
            <mxPoint as="offset" />
          </mxGeometry>
        </mxCell>
        <mxCell id="0MJOGi0nB4p2Ofhdkx8x-44" value="" style="endArrow=none;html=1;rounded=0;endFill=0;" parent="1" edge="1">
          <mxGeometry width="50" height="50" relative="1" as="geometry">
            <mxPoint x="880" y="510" as="sourcePoint" />
            <mxPoint x="910" y="510" as="targetPoint" />
          </mxGeometry>
        </mxCell>
        <mxCell id="0MJOGi0nB4p2Ofhdkx8x-45" value="" style="endArrow=none;html=1;rounded=0;edgeStyle=orthogonalEdgeStyle;endFill=0;" parent="1" edge="1">
          <mxGeometry width="50" height="50" relative="1" as="geometry">
            <mxPoint x="880" y="590" as="sourcePoint" />
            <mxPoint x="850" y="590" as="targetPoint" />
          </mxGeometry>
        </mxCell>
        <mxCell id="0MJOGi0nB4p2Ofhdkx8x-47" value="" style="endArrow=classic;html=1;rounded=0;entryX=0.903;entryY=1;entryDx=0;entryDy=0;entryPerimeter=0;edgeStyle=orthogonalEdgeStyle;" parent="1" target="0MJOGi0nB4p2Ofhdkx8x-9" edge="1">
          <mxGeometry width="50" height="50" relative="1" as="geometry">
            <mxPoint x="800" y="560" as="sourcePoint" />
            <mxPoint x="730" y="410" as="targetPoint" />
            <Array as="points">
              <mxPoint x="800" y="540" />
              <mxPoint x="630" y="540" />
              <mxPoint x="630" y="400" />
              <mxPoint x="608" y="400" />
            </Array>
          </mxGeometry>
        </mxCell>
        <mxCell id="0MJOGi0nB4p2Ofhdkx8x-48" value="Streams video" style="edgeLabel;html=1;align=center;verticalAlign=middle;resizable=0;points=[];" parent="0MJOGi0nB4p2Ofhdkx8x-47" vertex="1" connectable="0">
          <mxGeometry x="-0.2741" relative="1" as="geometry">
            <mxPoint as="offset" />
          </mxGeometry>
        </mxCell>
        <mxCell id="etUHL9N9CuV_xCmNPU38-3" value="" style="endArrow=none;html=1;rounded=0;entryX=0.5;entryY=1;entryDx=0;entryDy=0;fillColor=#dae8fc;strokeColor=#6c8ebf;" edge="1" parent="1" target="0MJOGi0nB4p2Ofhdkx8x-6">
          <mxGeometry width="50" height="50" relative="1" as="geometry">
            <mxPoint x="420" y="410" as="sourcePoint" />
            <mxPoint x="480" y="390" as="targetPoint" />
          </mxGeometry>
        </mxCell>
        <mxCell id="etUHL9N9CuV_xCmNPU38-4" value="" style="endArrow=none;html=1;rounded=0;entryX=0.5;entryY=1;entryDx=0;entryDy=0;fillColor=#dae8fc;strokeColor=#6c8ebf;" edge="1" parent="1" target="0MJOGi0nB4p2Ofhdkx8x-9">
          <mxGeometry width="50" height="50" relative="1" as="geometry">
            <mxPoint x="560" y="410" as="sourcePoint" />
            <mxPoint x="480" y="390" as="targetPoint" />
          </mxGeometry>
        </mxCell>
        <mxCell id="etUHL9N9CuV_xCmNPU38-5" value="" style="endArrow=none;html=1;rounded=0;entryX=0.338;entryY=1.003;entryDx=0;entryDy=0;entryPerimeter=0;fillColor=#dae8fc;strokeColor=#6c8ebf;" edge="1" parent="1" target="0MJOGi0nB4p2Ofhdkx8x-10">
          <mxGeometry width="50" height="50" relative="1" as="geometry">
            <mxPoint x="680" y="410" as="sourcePoint" />
            <mxPoint x="520" y="390" as="targetPoint" />
          </mxGeometry>
        </mxCell>
        <mxCell id="etUHL9N9CuV_xCmNPU38-8" value="" style="edgeStyle=orthogonalEdgeStyle;rounded=0;orthogonalLoop=1;jettySize=auto;html=1;" edge="1" parent="1" source="etUHL9N9CuV_xCmNPU38-7" target="0MJOGi0nB4p2Ofhdkx8x-4">
          <mxGeometry relative="1" as="geometry" />
        </mxCell>
        <mxCell id="etUHL9N9CuV_xCmNPU38-9" value="Uses&lt;br&gt;(http/s)" style="edgeLabel;html=1;align=center;verticalAlign=middle;resizable=0;points=[];" vertex="1" connectable="0" parent="etUHL9N9CuV_xCmNPU38-8">
          <mxGeometry x="-0.7302" y="-2" relative="1" as="geometry">
            <mxPoint x="2" y="8" as="offset" />
          </mxGeometry>
        </mxCell>
        <mxCell id="etUHL9N9CuV_xCmNPU38-7" value="&lt;b&gt;SPA&lt;/b&gt;&lt;br&gt;(Angular)" style="rounded=0;whiteSpace=wrap;html=1;fillColor=#dae8fc;strokeColor=#6c8ebf;" vertex="1" parent="1">
          <mxGeometry x="430" y="20" width="120" height="60" as="geometry" />
        </mxCell>
        <mxCell id="etUHL9N9CuV_xCmNPU38-12" value="" style="group;dashed=1;dashPattern=8 8;" vertex="1" connectable="0" parent="1">
          <mxGeometry x="200" y="290" width="580" height="100" as="geometry" />
        </mxCell>
        <mxCell id="etUHL9N9CuV_xCmNPU38-13" value="" style="rounded=0;whiteSpace=wrap;html=1;fillColor=none;dashed=1;opacity=50;" vertex="1" parent="etUHL9N9CuV_xCmNPU38-12">
          <mxGeometry x="-10" y="-130" width="590" height="230" as="geometry" />
        </mxCell>
        <mxCell id="etUHL9N9CuV_xCmNPU38-10" value="" style="rounded=0;whiteSpace=wrap;html=1;fillColor=none;dashed=1;opacity=50;" vertex="1" parent="etUHL9N9CuV_xCmNPU38-12">
          <mxGeometry width="570" height="90" as="geometry" />
        </mxCell>
        <mxCell id="etUHL9N9CuV_xCmNPU38-11" value="&lt;b&gt;Modules&lt;/b&gt;" style="text;html=1;strokeColor=none;fillColor=none;align=center;verticalAlign=middle;whiteSpace=wrap;rounded=0;" vertex="1" parent="etUHL9N9CuV_xCmNPU38-12">
          <mxGeometry width="60" height="18" as="geometry" />
        </mxCell>
        <mxCell id="etUHL9N9CuV_xCmNPU38-15" value="&lt;b&gt;SmartHome.Service.sln&lt;/b&gt;&lt;br&gt;(.NET solution, single deployment unit)" style="text;html=1;strokeColor=none;fillColor=none;align=left;verticalAlign=middle;whiteSpace=wrap;rounded=0;" vertex="1" parent="1">
          <mxGeometry x="190" y="160" width="220" height="30" as="geometry" />
        </mxCell>
      </root>
    </mxGraphModel>
  </diagram>
</mxfile>
